<svg width="598" height="542" viewBox="0 0 598 542" fill="none" xmlns="http://www.w3.org/2000/svg">
<path d="M54.3689 108.392H0V162.598H54.3689V108.392Z" fill="#FFD4DE"/>
<path d="M108.738 54.2057H54.3689V108.411H108.738V54.2057Z" fill="#FFD4DE"/>
<path d="M108.738 270.99H54.3689V325.196H108.738V270.99Z" fill="#FFD4DE"/>
<path d="M163.087 325.196H108.719V379.402H163.087V325.196Z" fill="#FFD4DE"/>
<path d="M217.456 379.402L163.087 379.402V433.608H217.456V379.402Z" fill="#FFD4DE"/>
<path d="M271.825 433.589H217.456V487.794H271.825V433.589Z" fill="#FFD4DE"/>
<path d="M326.175 487.794H271.806V542H326.175V487.794Z" fill="#FFD4DE"/>
<path d="M163.087 0H108.719V54.2057H163.087V0Z" fill="#FFD4DE"/>
<path d="M217.456 0H163.087V54.2057H217.456V0Z" fill="#FFD4DE"/>
<path d="M271.825 54.2057L217.456 54.2057L217.456 108.411H271.825V54.2057Z" fill="#FFD4DE"/>
<path d="M326.175 108.392H271.806V162.598H326.175V108.392Z" fill="#FFD4DE"/>
<path d="M54.3689 162.598H0V216.804H54.3689V162.598Z" fill="#FFD4DE"/>
<path d="M54.3689 216.804H0V271.01H54.3689V216.804Z" fill="#FFD4DE"/>
<path d="M543.631 162.598H598V108.392H543.631V162.598Z" fill="#FFD4DE"/>
<path d="M489.243 108.392H543.612V54.1866H489.243V108.392Z" fill="#FFD4DE"/>
<path d="M489.243 325.196H543.612V270.99H489.243V325.196Z" fill="#FFD4DE"/>
<path d="M434.893 379.383H489.262V325.177H434.893V379.383Z" fill="#FFD4DE"/>
<path d="M380.525 433.589H434.893L434.893 379.383L380.525 379.383V433.589Z" fill="#FFD4DE"/>
<path d="M326.156 487.794H380.525L380.525 433.589L326.156 433.589V487.794Z" fill="#FFD4DE"/>
<path d="M434.893 54.2057H489.262V3.423e-06H434.893V54.2057Z" fill="#FFD4DE"/>
<path d="M380.525 54.2057H434.893V3.423e-06H380.525V54.2057Z" fill="#FFD4DE"/>
<path d="M326.156 108.392H380.525V54.1866H326.156V108.392Z" fill="#FFD4DE"/>
<path d="M543.631 216.804H598V162.598H543.631V216.804Z" fill="#FFD4DE"/>
<path d="M543.631 270.99H598V216.785H543.631V270.99Z" fill="#FFD4DE"/>
</svg>
